<?xml version="1.0" standalone="no"?>
<!DOCTYPE svg PUBLIC "-//W3C//DTD SVG 20010904//EN"
 "http://www.w3.org/TR/2001/REC-SVG-20010904/DTD/svg10.dtd">
<svg version="1.0" xmlns="http://www.w3.org/2000/svg"
 width="400.000000pt" height="400.000000pt" viewBox="0 0 400.000000 400.000000"
 preserveAspectRatio="xMidYMid meet">

<g transform="translate(0.000000,400.000000) scale(0.100000,-0.100000)"
fill="#000000" stroke="none">
<path d="M140 3340 l0 -520 520 0 520 0 0 520 0 520 -520 0 -520 0 0 -520z
m890 0 l0 -370 -370 0 -370 0 0 370 0 370 370 0 370 0 0 -370z"/>
<path d="M440 3340 l0 -220 220 0 220 0 0 220 0 220 -220 0 -220 0 0 -220z"/>
<path d="M1480 3785 l0 -75 -75 0 -75 0 0 -75 0 -75 75 0 75 0 0 -75 0 -75
-75 0 -75 0 0 -75 0 -75 145 0 145 0 0 -220 0 -220 75 0 75 0 0 220 0 220 75
0 75 0 0 -70 0 -70 75 0 75 0 0 -75 0 -75 -75 0 -75 0 0 -225 0 -225 75 0 75
0 0 75 0 75 75 0 75 0 0 -75 0 -75 75 0 75 0 0 -145 0 -145 -75 0 -75 0 0 -75
0 -75 75 0 75 0 0 -75 0 -75 -225 0 -225 0 0 150 0 150 75 0 75 0 0 75 0 75
-150 0 -150 0 0 -75 0 -75 -75 0 -75 0 0 145 0 145 75 0 75 0 0 75 0 75 -370
0 -370 0 0 -75 0 -75 225 0 225 0 0 -70 0 -70 -225 0 -225 0 0 -75 0 -75 225
0 225 0 0 -150 0 -150 70 0 70 0 0 -75 0 -75 -70 0 -70 0 0 -220 0 -220 -75 0
-75 0 0 75 0 75 -295 0 -295 0 0 -75 0 -75 295 0 295 0 0 -150 0 -150 145 0
145 0 0 -145 0 -145 -70 0 -70 0 0 70 0 70 -75 0 -75 0 0 -370 0 -370 220 0
220 0 0 150 0 150 -75 0 -75 0 0 75 0 75 75 0 75 0 0 75 0 75 75 0 75 0 0 -75
0 -75 75 0 75 0 0 -75 0 -75 -75 0 -75 0 0 -150 0 -150 75 0 75 0 0 75 0 75
75 0 75 0 0 -75 0 -75 145 0 145 0 0 75 0 75 75 0 75 0 0 -75 0 -75 595 0 595
0 0 370 0 370 -75 0 -75 0 0 -70 0 -70 -75 0 -75 0 0 70 0 70 -75 0 -75 0 0
75 0 75 225 0 225 0 0 75 0 75 -225 0 -225 0 0 75 0 75 75 0 75 0 0 75 0 75
-75 0 -75 0 0 -75 0 -75 -75 0 -75 0 0 145 0 145 75 0 75 0 0 150 0 150 75 0
75 0 0 -150 0 -150 75 0 75 0 0 -70 0 -70 75 0 75 0 0 145 0 145 -75 0 -75 0
0 75 0 75 75 0 75 0 0 225 0 225 -75 0 -75 0 0 145 0 145 -75 0 -75 0 0 -220
0 -220 75 0 75 0 0 -75 0 -75 -150 0 -150 0 0 -75 0 -75 -75 0 -75 0 0 75 0
75 -70 0 -70 0 0 75 0 75 -75 0 -75 0 0 -75 0 -75 -150 0 -150 0 0 75 0 75 75
0 75 0 0 75 0 75 -75 0 -75 0 0 70 0 70 75 0 75 0 0 75 0 75 -75 0 -75 0 0
150 0 150 -75 0 -75 0 0 75 0 75 -145 0 -145 0 0 70 0 70 -150 0 -150 0 0 150
0 150 75 0 75 0 0 75 0 75 -150 0 -150 0 0 -75 0 -75 -75 0 -75 0 0 150 0 150
-70 0 -70 0 0 -75z m290 -450 l0 -75 -75 0 -75 0 0 75 0 75 75 0 75 0 0 -75z
m450 -440 l0 -75 75 0 75 0 0 75 0 75 70 0 70 0 0 -150 0 -150 75 0 75 0 0
-75 0 -75 -75 0 -75 0 0 75 0 75 -145 0 -145 0 0 75 0 75 -75 0 -75 0 0 75 0
75 75 0 75 0 0 -75z m440 -590 l0 -75 -75 0 -75 0 0 -75 0 -75 -70 0 -70 0 0
75 0 75 70 0 70 0 0 75 0 75 75 0 75 0 0 -75z m-890 -300 l0 -75 75 0 75 0 0
-75 0 -75 75 0 75 0 0 -75 0 -75 -75 0 -75 0 0 -145 0 -145 75 0 75 0 0 75 0
75 75 0 75 0 0 70 0 70 75 0 75 0 0 -70 0 -70 -75 0 -75 0 0 -75 0 -75 75 0
75 0 0 -75 0 -75 70 0 70 0 0 -150 0 -150 -70 0 -70 0 0 -70 0 -70 70 0 70 0
0 -150 0 -150 -70 0 -70 0 0 -75 0 -75 -75 0 -75 0 0 75 0 75 75 0 75 0 0 150
0 150 -225 0 -225 0 0 145 0 145 75 0 75 0 0 75 0 75 -225 0 -225 0 0 295 0
295 75 0 75 0 0 75 0 75 -75 0 -75 0 0 75 0 75 75 0 75 0 0 -75z m740 -150 l0
-75 75 0 75 0 0 75 0 75 150 0 150 0 0 -150 0 -150 -75 0 -75 0 0 -70 0 -70
-75 0 -75 0 0 70 0 70 -75 0 -75 0 0 75 0 75 -70 0 -70 0 0 75 0 75 70 0 70 0
0 -75z m740 0 l0 -75 -70 0 -70 0 0 75 0 75 70 0 70 0 0 -75z m-140 -740 l0
-225 -225 0 -225 0 0 225 0 225 225 0 225 0 0 -225z m290 0 l0 -75 -75 0 -75
0 0 75 0 75 75 0 75 0 0 -75z m0 -295 l0 -70 -75 0 -75 0 0 70 0 70 75 0 75 0
0 -70z m-290 -145 l0 -75 70 0 70 0 0 -75 0 -75 -145 0 -145 0 0 -75 0 -75
-150 0 -150 0 0 75 0 75 75 0 75 0 0 75 0 75 75 0 75 0 0 75 0 75 75 0 75 0 0
-75z m590 -225 l0 -150 -150 0 -150 0 0 75 0 75 75 0 75 0 0 75 0 75 75 0 75
0 0 -150z"/>
<path d="M2220 965 l0 -75 75 0 75 0 0 75 0 75 -75 0 -75 0 0 -75z"/>
<path d="M2660 1705 l0 -75 75 0 75 0 0 75 0 75 -75 0 -75 0 0 -75z"/>
<path d="M2810 1115 l0 -75 75 0 75 0 0 75 0 75 -75 0 -75 0 0 -75z"/>
<path d="M2510 3785 l0 -75 -145 0 -145 0 0 -75 0 -75 145 0 145 0 0 -75 0
-75 -70 0 -70 0 0 -75 0 -75 145 0 145 0 0 150 0 150 -75 0 -75 0 0 75 0 75
75 0 75 0 0 75 0 75 -75 0 -75 0 0 -75z"/>
<path d="M2810 3340 l0 -520 520 0 520 0 0 520 0 520 -520 0 -520 0 0 -520z
m890 0 l0 -370 -370 0 -370 0 0 370 0 370 370 0 370 0 0 -370z"/>
<path d="M3110 3340 l0 -220 220 0 220 0 0 220 0 220 -220 0 -220 0 0 -220z"/>
<path d="M1330 2970 l0 -150 75 0 75 0 0 150 0 150 -75 0 -75 0 0 -150z"/>
<path d="M140 2595 l0 -75 75 0 75 0 0 -70 0 -70 150 0 150 0 0 70 0 70 145 0
145 0 0 75 0 75 -370 0 -370 0 0 -75z"/>
<path d="M2960 2595 l0 -75 75 0 75 0 0 75 0 75 -75 0 -75 0 0 -75z"/>
<path d="M3250 2595 l0 -75 75 0 75 0 0 75 0 75 -75 0 -75 0 0 -75z"/>
<path d="M3250 2305 l0 -75 75 0 75 0 0 75 0 75 -75 0 -75 0 0 -75z"/>
<path d="M140 1785 l0 -445 75 0 75 0 0 220 0 220 75 0 75 0 0 -75 0 -75 220
0 220 0 0 75 0 75 -145 0 -145 0 0 75 0 75 -150 0 -150 0 0 150 0 150 -75 0
-75 0 0 -445z"/>
<path d="M440 2155 l0 -75 75 0 75 0 0 75 0 75 -75 0 -75 0 0 -75z"/>
<path d="M740 2080 l0 -150 70 0 70 0 0 150 0 150 -70 0 -70 0 0 -150z"/>
<path d="M1030 2005 l0 -75 150 0 150 0 0 75 0 75 -150 0 -150 0 0 -75z"/>
<path d="M1030 1705 l0 -75 150 0 150 0 0 75 0 75 -150 0 -150 0 0 -75z"/>
<path d="M440 1415 l0 -75 75 0 75 0 0 75 0 75 -75 0 -75 0 0 -75z"/>
<path d="M140 670 l0 -520 520 0 520 0 0 520 0 520 -520 0 -520 0 0 -520z
m890 0 l0 -370 -370 0 -370 0 0 370 0 370 370 0 370 0 0 -370z"/>
<path d="M440 670 l0 -220 220 0 220 0 0 220 0 220 -220 0 -220 0 0 -220z"/>
</g>
</svg>
